<svg width="147" height="53" viewBox="0 0 147 53" fill="none" xmlns="http://www.w3.org/2000/svg">
<rect x="0.5" y="0.5" width="146" height="52" rx="26" fill="#2F59ED"/>
<path d="M30.284 32.74C29.4947 32.74 28.7747 32.6013 28.124 32.324C27.4733 32.0467 26.9133 31.6493 26.444 31.132C25.9747 30.6093 25.612 29.98 25.356 29.244C25.1053 28.5027 24.98 27.668 24.98 26.74C24.98 25.5133 25.1987 24.452 25.636 23.556C26.0733 22.66 26.6893 21.9693 27.484 21.484C28.2787 20.9933 29.212 20.748 30.284 20.748C31.5747 20.748 32.6147 21.0493 33.404 21.652C34.1933 22.2493 34.7373 23.068 35.036 24.108L33.596 24.404C33.356 23.7053 32.9613 23.148 32.412 22.732C31.8627 22.316 31.1773 22.108 30.356 22.108C29.4973 22.1027 28.7827 22.2947 28.212 22.684C27.6467 23.068 27.22 23.6093 26.932 24.308C26.644 25.0067 26.4973 25.8173 26.492 26.74C26.4867 27.6573 26.628 28.4627 26.916 29.156C27.204 29.8493 27.6333 30.3933 28.204 30.788C28.78 31.1773 29.4973 31.3747 30.356 31.38C31.0973 31.3853 31.7213 31.244 32.228 30.956C32.7347 30.668 33.1267 30.252 33.404 29.708C33.6813 29.164 33.8493 28.5107 33.908 27.748H31.46V26.572H35.412C35.428 26.6787 35.436 26.8067 35.436 26.956C35.4413 27.1 35.444 27.1987 35.444 27.252C35.444 28.3027 35.2467 29.244 34.852 30.076C34.4627 30.9027 33.884 31.5533 33.116 32.028C32.3533 32.5027 31.4093 32.74 30.284 32.74ZM41.7859 32.74C40.9379 32.74 40.1965 32.5533 39.5619 32.18C38.9325 31.8013 38.4419 31.276 38.0899 30.604C37.7379 29.9267 37.5619 29.1373 37.5619 28.236C37.5619 27.292 37.7352 26.476 38.0819 25.788C38.4285 25.0947 38.9112 24.5613 39.5299 24.188C40.1539 23.8093 40.8845 23.62 41.7219 23.62C42.5912 23.62 43.3299 23.82 43.9379 24.22C44.5512 24.62 45.0099 25.1907 45.3139 25.932C45.6232 26.6733 45.7565 27.556 45.7139 28.58H44.2739V28.068C44.2579 27.0067 44.0419 26.2147 43.6259 25.692C43.2099 25.164 42.5912 24.9 41.7699 24.9C40.8899 24.9 40.2205 25.1827 39.7619 25.748C39.3032 26.3133 39.0739 27.124 39.0739 28.18C39.0739 29.1987 39.3032 29.988 39.7619 30.548C40.2205 31.108 40.8739 31.388 41.7219 31.388C42.2925 31.388 42.7885 31.2573 43.2099 30.996C43.6312 30.7347 43.9619 30.3587 44.2019 29.868L45.5699 30.34C45.2339 31.1027 44.7272 31.6947 44.0499 32.116C43.3779 32.532 42.6232 32.74 41.7859 32.74ZM38.5939 28.58V27.436H44.9779V28.58H38.5939ZM53.319 32.5C52.807 32.6013 52.3003 32.6413 51.799 32.62C51.303 32.604 50.8603 32.5053 50.471 32.324C50.0817 32.1373 49.7857 31.8493 49.583 31.46C49.4123 31.1187 49.319 30.7747 49.303 30.428C49.2923 30.076 49.287 29.6787 49.287 29.236V21.46H50.711V29.172C50.711 29.524 50.7137 29.8253 50.719 30.076C50.7297 30.3267 50.7857 30.5427 50.887 30.724C51.079 31.0653 51.383 31.2653 51.799 31.324C52.2203 31.3827 52.727 31.3667 53.319 31.276V32.5ZM47.535 25.036V23.86H53.319V25.036H47.535ZM64.3643 32.74C63.5483 32.74 62.8123 32.6013 62.1563 32.324C61.5056 32.0467 60.9669 31.652 60.5403 31.14C60.1189 30.6227 59.8443 30.012 59.7163 29.308L61.1883 29.076C61.3749 29.8013 61.7616 30.3693 62.3483 30.78C62.9403 31.1853 63.6363 31.388 64.4363 31.388C64.9536 31.388 65.4203 31.308 65.8363 31.148C66.2576 30.9827 66.5909 30.748 66.8363 30.444C67.0816 30.14 67.2043 29.78 67.2043 29.364C67.2043 29.108 67.1589 28.8893 67.0683 28.708C66.9829 28.5213 66.8629 28.364 66.7083 28.236C66.5589 28.1027 66.3883 27.9907 66.1963 27.9C66.0043 27.8093 65.8043 27.7347 65.5963 27.676L62.6603 26.804C62.3403 26.708 62.0309 26.588 61.7323 26.444C61.4336 26.2947 61.1669 26.1107 60.9323 25.892C60.6976 25.668 60.5109 25.4013 60.3723 25.092C60.2336 24.7773 60.1643 24.4067 60.1643 23.98C60.1643 23.2973 60.3403 22.716 60.6923 22.236C61.0496 21.7507 61.5323 21.38 62.1403 21.124C62.7483 20.868 63.4336 20.7427 64.1963 20.748C64.9696 20.7533 65.6603 20.892 66.2683 21.164C66.8816 21.4307 67.3883 21.8147 67.7882 22.316C68.1936 22.8173 68.4656 23.4173 68.6043 24.116L67.0923 24.38C67.0123 23.9107 66.8336 23.508 66.5563 23.172C66.2843 22.8307 65.9429 22.5693 65.5323 22.388C65.1216 22.2013 64.6709 22.1053 64.1803 22.1C63.7109 22.0947 63.2869 22.1693 62.9083 22.324C62.5296 22.4787 62.2283 22.6947 62.0043 22.972C61.7803 23.244 61.6683 23.5587 61.6683 23.916C61.6683 24.268 61.7696 24.5533 61.9723 24.772C62.1749 24.9853 62.4229 25.156 62.7163 25.284C63.0149 25.4067 63.3056 25.508 63.5883 25.588L65.7803 26.22C66.0309 26.2893 66.3189 26.3853 66.6443 26.508C66.9749 26.6307 67.2949 26.804 67.6042 27.028C67.9136 27.2467 68.1696 27.54 68.3723 27.908C68.5749 28.2707 68.6763 28.7293 68.6763 29.284C68.6763 29.8387 68.5643 30.332 68.3403 30.764C68.1216 31.196 67.8149 31.5587 67.4202 31.852C67.0256 32.14 66.5669 32.3587 66.0443 32.508C65.5216 32.6627 64.9616 32.74 64.3643 32.74ZM76.1784 32.5C75.6664 32.6013 75.1597 32.6413 74.6584 32.62C74.1624 32.604 73.7197 32.5053 73.3304 32.324C72.941 32.1373 72.645 31.8493 72.4424 31.46C72.2717 31.1187 72.1784 30.7747 72.1624 30.428C72.1517 30.076 72.1464 29.6787 72.1464 29.236V21.46H73.5704V29.172C73.5704 29.524 73.573 29.8253 73.5784 30.076C73.589 30.3267 73.645 30.5427 73.7464 30.724C73.9384 31.0653 74.2424 31.2653 74.6584 31.324C75.0797 31.3827 75.5864 31.3667 76.1784 31.276V32.5ZM70.3944 25.036V23.86H76.1784V25.036H70.3944ZM81.3885 32.74C80.7432 32.74 80.2018 32.6227 79.7645 32.388C79.3325 32.148 79.0045 31.8333 78.7805 31.444C78.5618 31.0547 78.4525 30.628 78.4525 30.164C78.4525 29.7107 78.5378 29.3187 78.7085 28.988C78.8845 28.652 79.1298 28.3747 79.4445 28.156C79.7592 27.932 80.1352 27.756 80.5725 27.628C80.9832 27.516 81.4418 27.42 81.9485 27.34C82.4605 27.2547 82.9778 27.1773 83.5005 27.108C84.0232 27.0387 84.5112 26.972 84.9645 26.908L84.4525 27.204C84.4685 26.436 84.3138 25.868 83.9885 25.5C83.6685 25.132 83.1138 24.948 82.3245 24.948C81.8018 24.948 81.3432 25.068 80.9485 25.308C80.5592 25.5427 80.2845 25.9267 80.1245 26.46L78.7725 26.052C78.9805 25.2947 79.3832 24.7 79.9805 24.268C80.5778 23.836 81.3645 23.62 82.3405 23.62C83.1245 23.62 83.7965 23.7613 84.3565 24.044C84.9218 24.3213 85.3272 24.7427 85.5725 25.308C85.6952 25.5747 85.7725 25.8653 85.8045 26.18C85.8365 26.4893 85.8525 26.8147 85.8525 27.156V32.5H84.5885V30.428L84.8845 30.62C84.5592 31.3187 84.1032 31.8467 83.5165 32.204C82.9352 32.5613 82.2258 32.74 81.3885 32.74ZM81.6045 31.548C82.1165 31.548 82.5592 31.4573 82.9325 31.276C83.3112 31.0893 83.6152 30.8467 83.8445 30.548C84.0738 30.244 84.2232 29.9133 84.2925 29.556C84.3725 29.2893 84.4152 28.9933 84.4205 28.668C84.4312 28.3373 84.4365 28.084 84.4365 27.908L84.9325 28.124C84.4685 28.188 84.0125 28.2493 83.5645 28.308C83.1165 28.3667 82.6925 28.4307 82.2925 28.5C81.8925 28.564 81.5325 28.6413 81.2125 28.732C80.9778 28.8067 80.7565 28.9027 80.5485 29.02C80.3458 29.1373 80.1805 29.2893 80.0525 29.476C79.9298 29.6573 79.8685 29.884 79.8685 30.156C79.8685 30.3907 79.9272 30.6147 80.0445 30.828C80.1672 31.0413 80.3538 31.2147 80.6045 31.348C80.8605 31.4813 81.1938 31.548 81.6045 31.548ZM88.9325 32.5V23.86H90.2045V25.948L89.9965 25.676C90.0978 25.4093 90.2285 25.164 90.3885 24.94C90.5538 24.716 90.7378 24.532 90.9405 24.388C91.1645 24.2067 91.4178 24.068 91.7005 23.972C91.9832 23.876 92.2712 23.82 92.5645 23.804C92.8578 23.7827 93.1325 23.8013 93.3885 23.86V25.196C93.0898 25.116 92.7618 25.0947 92.4045 25.132C92.0472 25.1693 91.7165 25.3 91.4125 25.524C91.1352 25.7213 90.9192 25.9613 90.7645 26.244C90.6152 26.5267 90.5112 26.8333 90.4525 27.164C90.3938 27.4893 90.3645 27.8227 90.3645 28.164V32.5H88.9325ZM100.725 32.5C100.213 32.6013 99.7066 32.6413 99.2053 32.62C98.7093 32.604 98.2666 32.5053 97.8773 32.324C97.4879 32.1373 97.1919 31.8493 96.9893 31.46C96.8186 31.1187 96.7253 30.7747 96.7093 30.428C96.6986 30.076 96.6933 29.6787 96.6933 29.236V21.46H98.1173V29.172C98.1173 29.524 98.1199 29.8253 98.1253 30.076C98.1359 30.3267 98.1919 30.5427 98.2933 30.724C98.4853 31.0653 98.7893 31.2653 99.2053 31.324C99.6266 31.3827 100.133 31.3667 100.725 31.276V32.5ZM94.9413 25.036V23.86H100.725V25.036H94.9413ZM106.864 32.74C106.016 32.74 105.275 32.5533 104.64 32.18C104.011 31.8013 103.52 31.276 103.168 30.604C102.816 29.9267 102.64 29.1373 102.64 28.236C102.64 27.292 102.813 26.476 103.16 25.788C103.507 25.0947 103.989 24.5613 104.608 24.188C105.232 23.8093 105.963 23.62 106.8 23.62C107.669 23.62 108.408 23.82 109.016 24.22C109.629 24.62 110.088 25.1907 110.392 25.932C110.701 26.6733 110.835 27.556 110.792 28.58H109.352V28.068C109.336 27.0067 109.12 26.2147 108.704 25.692C108.288 25.164 107.669 24.9 106.848 24.9C105.968 24.9 105.299 25.1827 104.84 25.748C104.381 26.3133 104.152 27.124 104.152 28.18C104.152 29.1987 104.381 29.988 104.84 30.548C105.299 31.108 105.952 31.388 106.8 31.388C107.371 31.388 107.867 31.2573 108.288 30.996C108.709 30.7347 109.04 30.3587 109.28 29.868L110.648 30.34C110.312 31.1027 109.805 31.6947 109.128 32.116C108.456 32.532 107.701 32.74 106.864 32.74ZM103.672 28.58V27.436H110.056V28.58H103.672ZM116.965 32.74C116.16 32.74 115.469 32.54 114.893 32.14C114.317 31.7347 113.872 31.188 113.557 30.5C113.248 29.812 113.093 29.036 113.093 28.172C113.093 27.308 113.248 26.532 113.557 25.844C113.872 25.156 114.317 24.6147 114.893 24.22C115.469 23.82 116.157 23.62 116.957 23.62C117.773 23.62 118.458 23.8173 119.013 24.212C119.568 24.6067 119.986 25.148 120.269 25.836C120.557 26.524 120.701 27.3027 120.701 28.172C120.701 29.0307 120.557 29.8067 120.269 30.5C119.986 31.188 119.568 31.7347 119.013 32.14C118.458 32.54 117.776 32.74 116.965 32.74ZM117.141 31.436C117.722 31.436 118.2 31.2973 118.573 31.02C118.946 30.7373 119.221 30.3507 119.397 29.86C119.578 29.364 119.669 28.8013 119.669 28.172C119.669 27.532 119.578 26.9693 119.397 26.484C119.221 25.9933 118.949 25.612 118.581 25.34C118.213 25.0627 117.746 24.924 117.181 24.924C116.594 24.924 116.109 25.068 115.725 25.356C115.346 25.644 115.064 26.0333 114.877 26.524C114.696 27.0147 114.605 27.564 114.605 28.172C114.605 28.7853 114.698 29.34 114.885 29.836C115.072 30.3267 115.352 30.716 115.725 31.004C116.104 31.292 116.576 31.436 117.141 31.436ZM119.669 32.5V26.14H119.509V20.98H120.941V32.5H119.669Z" fill="white"/>
</svg>
