<svg width="55" height="54" viewBox="0 0 55 54" fill="none" xmlns="http://www.w3.org/2000/svg">
<rect x="0.687097" y="0.437097" width="53.1258" height="53.1258" rx="26.5629" stroke="#D9D9D9" stroke-width="0.874194"/>
<path d="M24.6274 22.192C24.7404 22.1919 24.8569 22.1919 24.9771 22.1919H29.5229C29.6431 22.1919 29.7596 22.1919 29.8726 22.192M24.6274 22.192C22.8994 22.1934 21.9936 22.2153 21.2915 22.573C20.6336 22.9083 20.0986 23.4432 19.7634 24.1012C19.3823 24.8492 19.3823 25.8284 19.3823 27.7868V28.8358C19.3823 30.7942 19.3823 31.7734 19.7634 32.5214C20.0986 33.1793 20.6336 33.7143 21.2915 34.0495C22.0395 34.4306 23.0187 34.4306 24.9771 34.4306H29.5229C31.4813 34.4306 32.4605 34.4306 33.2085 34.0495C33.8664 33.7143 34.4014 33.1793 34.7366 32.5214C35.1177 31.7734 35.1177 30.7942 35.1177 28.8358V27.7868C35.1177 25.8284 35.1177 24.8492 34.7366 24.1012C34.4014 23.4432 33.8664 22.9083 33.2085 22.573C32.5064 22.2153 31.6006 22.1934 29.8726 22.192M24.6274 22.192V21.3177C24.6274 20.3521 25.4102 19.5693 26.3758 19.5693H28.1242C29.0898 19.5693 29.8726 20.3521 29.8726 21.3177V22.192M29.8726 28.3113C29.8726 29.7597 28.6984 30.9339 27.25 30.9339C25.8016 30.9339 24.6274 29.7597 24.6274 28.3113C24.6274 26.8629 25.8016 25.6887 27.25 25.6887C28.6984 25.6887 29.8726 26.8629 29.8726 28.3113Z" stroke="#2F59ED" stroke-width="1.74839" stroke-linecap="round"/>
</svg>
