<svg width="55" height="54" viewBox="0 0 55 54" fill="none" xmlns="http://www.w3.org/2000/svg">
<rect x="0.937097" y="0.437097" width="53.1258" height="53.1258" rx="26.5629" stroke="#D9D9D9" stroke-width="0.874194"/>
<path d="M24.8774 19.1322L27.4382 21.693C27.4723 21.7271 27.5277 21.7271 27.5618 21.693L30.1226 19.1322M24.0032 30.4967L26.2885 28.0482C26.3156 28.0192 26.3588 28.0121 26.3937 28.0308L28.5993 29.2123C28.6374 29.2328 28.6847 29.2222 28.7106 29.1876L30.9968 26.1258M22.4297 21.7548H32.5703C33.5495 21.7548 34.0391 21.7548 34.4131 21.9453C34.7421 22.113 35.0096 22.3804 35.1772 22.7094C35.3677 23.0834 35.3677 23.573 35.3677 24.5522V32.0703C35.3677 33.0495 35.3677 33.5391 35.1772 33.9131C35.0096 34.242 34.7421 34.5095 34.4131 34.6771C34.0391 34.8677 33.5495 34.8677 32.5703 34.8677H22.4297C21.4505 34.8677 20.9609 34.8677 20.5869 34.6771C20.2579 34.5095 19.9904 34.242 19.8228 33.9131C19.6323 33.5391 19.6323 33.0495 19.6323 32.0703V24.5522C19.6323 23.573 19.6323 23.0834 19.8228 22.7094C19.9904 22.3804 20.2579 22.113 20.5869 21.9453C20.9609 21.7548 21.4505 21.7548 22.4297 21.7548Z" stroke="#2F59ED" stroke-width="1.74839" stroke-linecap="round"/>
</svg>
