<svg width="54" height="54" viewBox="0 0 54 54" fill="none" xmlns="http://www.w3.org/2000/svg">
<rect x="0.437097" y="0.437097" width="53.1258" height="53.1258" rx="26.5629" stroke="#D9D9D9" stroke-width="0.874194"/>
<path d="M24.3774 20.8806H21.9297C20.9505 20.8806 20.4609 20.8806 20.0869 21.0712C19.7579 21.2388 19.4904 21.5062 19.3228 21.8352C19.1323 22.2092 19.1323 22.6988 19.1323 23.678V32.0703C19.1323 33.0495 19.1323 33.5391 19.3228 33.9131C19.4904 34.242 19.7579 34.5095 20.0869 34.6771C20.4609 34.8677 20.9505 34.8677 21.9297 34.8677H32.0703C33.0495 34.8677 33.5391 34.8677 33.9131 34.6771C34.2421 34.5095 34.5096 34.242 34.6772 33.9131C34.8677 33.5391 34.8677 33.0495 34.8677 32.0703V23.678C34.8677 22.6988 34.8677 22.2092 34.6772 21.8352C34.5096 21.5062 34.2421 21.2388 33.9131 21.0712C33.5391 20.8806 33.0495 20.8806 32.0703 20.8806H29.6226H24.3774Z" fill="white"/>
<path d="M29.6226 26.9999L26.4349 30.1876C26.2642 30.3583 25.9874 30.3583 25.8167 30.1876L24.3774 28.7483M19.1323 24.3774H34.8677M24.3774 20.8806H21.9297C20.9505 20.8806 20.4609 20.8806 20.0869 21.0712C19.7579 21.2388 19.4904 21.5062 19.3228 21.8352C19.1323 22.2092 19.1323 22.6988 19.1323 23.678V32.0703C19.1323 33.0495 19.1323 33.5391 19.3228 33.9131C19.4904 34.242 19.7579 34.5095 20.0869 34.6771C20.4609 34.8677 20.9505 34.8677 21.9297 34.8677H32.0703C33.0495 34.8677 33.5391 34.8677 33.9131 34.6771C34.2421 34.5095 34.5096 34.242 34.6772 33.9131C34.8677 33.5391 34.8677 33.0495 34.8677 32.0703V23.678C34.8677 22.6988 34.8677 22.2092 34.6772 21.8352C34.5096 21.5062 34.2421 21.2388 33.9131 21.0712C33.5391 20.8806 33.0495 20.8806 32.0703 20.8806H29.6226M24.3774 20.8806H29.6226M24.3774 20.8806V20.4435C24.3774 19.7193 23.7903 19.1322 23.0661 19.1322C22.3419 19.1322 21.7548 19.7193 21.7548 20.4435V20.8806M29.6226 20.8806V20.4435C29.6226 19.7193 30.2097 19.1322 30.9339 19.1322C31.6581 19.1322 32.2452 19.7193 32.2452 20.4435V20.8806" stroke="#2F59ED" stroke-width="1.74839" stroke-linecap="round"/>
</svg>
