<svg width="55" height="54" viewBox="0 0 55 54" fill="none" xmlns="http://www.w3.org/2000/svg">
<rect x="1.1871" y="0.437097" width="53.1258" height="53.1258" rx="26.5629" stroke="#D9D9D9" stroke-width="0.874194"/>
<path d="M19.8028 28.0243C19.5042 27.3747 19.5042 26.6253 19.8028 25.9756C21.185 22.9686 24.2237 20.8806 27.75 20.8806C31.2764 20.8806 34.3151 22.9686 35.6973 25.9756C35.9959 26.6253 35.9959 27.3747 35.6973 28.0243C34.3151 31.0314 31.2764 33.1193 27.75 33.1193C24.2237 33.1193 21.185 31.0314 19.8028 28.0243Z" stroke="#2F59ED" stroke-width="1.74839"/>
<path d="M30.3726 27C30.3726 28.4484 29.1984 29.6226 27.75 29.6226C26.3016 29.6226 25.1275 28.4484 25.1275 27C25.1275 25.5516 26.3016 24.3774 27.75 24.3774C29.1984 24.3774 30.3726 25.5516 30.3726 27Z" stroke="#2F59ED" stroke-width="1.74839"/>
</svg>
