<svg width="114" height="26" viewBox="0 0 114 26" fill="none" xmlns="http://www.w3.org/2000/svg">
<rect x="8.55254" y="6.04908" width="3.8643" height="6.60638" transform="rotate(45 8.55254 6.04908)" fill="#2F59ED"/>
<rect x="14.6922" y="6.70872" width="3.8643" height="10.2683" transform="rotate(45 14.6922 6.70872)" fill="#2F59ED"/>
<rect x="20.8338" y="7.06516" width="3.8643" height="14.359" transform="rotate(45 20.8338 7.06516)" fill="#2F59ED"/>
<path d="M35.1113 20.268C34.1582 20.268 33.2975 20.1013 32.5291 19.7677C31.7666 19.4282 31.1382 18.9457 30.6438 18.3202C30.1554 17.6888 29.8456 16.9383 29.7146 16.0686L32.2521 15.6934C32.4308 16.432 32.8001 17.0008 33.36 17.3999C33.9199 17.799 34.5573 17.9986 35.2721 17.9986C35.6712 17.9986 36.0584 17.936 36.4336 17.8109C36.8089 17.6859 37.1157 17.5012 37.3539 17.257C37.5982 17.0128 37.7203 16.7119 37.7203 16.3545C37.7203 16.2235 37.6994 16.0984 37.6577 15.9793C37.622 15.8542 37.5594 15.738 37.4701 15.6308C37.3807 15.5236 37.2527 15.4223 37.0859 15.327C36.9251 15.2317 36.7196 15.1454 36.4694 15.0679L33.1277 14.0851C32.8775 14.0136 32.5857 13.9123 32.2521 13.7813C31.9245 13.6502 31.6058 13.4626 31.296 13.2184C30.9863 12.9742 30.7272 12.6525 30.5187 12.2534C30.3162 11.8484 30.2149 11.3391 30.2149 10.7255C30.2149 9.86183 30.4323 9.14406 30.8672 8.57222C31.302 8.00039 31.8828 7.57449 32.6095 7.29453C33.3362 7.01457 34.1403 6.87756 35.0219 6.88352C35.9095 6.89543 36.7017 7.04733 37.3986 7.3392C38.0955 7.63108 38.6793 8.05698 39.1499 8.6169C39.6204 9.17086 39.96 9.84992 40.1684 10.6541L37.5416 11.1008C37.4463 10.6838 37.2705 10.3324 37.0144 10.0465C36.7583 9.76057 36.4515 9.54315 36.0941 9.39424C35.7427 9.24532 35.3734 9.16491 34.9862 9.15299C34.605 9.14108 34.2446 9.19469 33.905 9.31382C33.5715 9.427 33.2975 9.59378 33.083 9.81418C32.8746 10.0346 32.7703 10.2967 32.7703 10.6005C32.7703 10.8804 32.8567 11.1097 33.0294 11.2884C33.2022 11.4612 33.4196 11.6012 33.6817 11.7084C33.9438 11.8156 34.2118 11.905 34.4858 11.9764L36.7196 12.584C37.0531 12.6734 37.4224 12.7925 37.8275 12.9414C38.2325 13.0844 38.6197 13.2869 38.989 13.549C39.3643 13.8051 39.6711 14.1446 39.9093 14.5676C40.1535 14.9905 40.2757 15.5266 40.2757 16.1758C40.2757 16.8668 40.1297 17.4714 39.8378 17.9896C39.5519 18.5019 39.1647 18.9278 38.6763 19.2673C38.1879 19.6009 37.6339 19.8511 37.0144 20.0179C36.4009 20.1847 35.7665 20.268 35.1113 20.268ZM53.8549 20V14.2995C53.8549 13.6622 53.703 13.1678 53.3993 12.8163C53.1014 12.4589 52.6874 12.2802 52.1573 12.2802C51.8178 12.2802 51.5229 12.3606 51.2727 12.5215C51.0226 12.6763 50.826 12.8967 50.683 13.1826C50.546 13.4626 50.4775 13.7872 50.4775 14.1566L49.4589 13.4775C49.4589 12.8163 49.6138 12.2326 49.9236 11.7263C50.2393 11.2199 50.6592 10.8268 51.1834 10.5468C51.7135 10.2609 52.3003 10.118 52.9436 10.118C54.0455 10.118 54.8765 10.4456 55.4364 11.1008C56.0023 11.7501 56.2852 12.6019 56.2852 13.6562V20H53.8549ZM42.2217 20V10.3503H44.366V13.549H44.6698V20H42.2217ZM48.0472 20V14.2995C48.0472 13.6622 47.8953 13.1678 47.5915 12.8163C47.2937 12.4589 46.8797 12.2802 46.3496 12.2802C45.8433 12.2802 45.4353 12.4559 45.1255 12.8074C44.8217 13.1529 44.6698 13.6026 44.6698 14.1566L43.6512 13.4418C43.6512 12.8104 43.8091 12.2445 44.1248 11.7441C44.4405 11.2438 44.8634 10.8477 45.3936 10.5558C45.9297 10.2639 46.5283 10.118 47.1895 10.118C47.946 10.118 48.5655 10.2788 49.0479 10.6005C49.5364 10.9221 49.8968 11.351 50.1291 11.8871C50.3614 12.4232 50.4775 13.0129 50.4775 13.6562V20H48.0472ZM61.2891 20.268C60.5981 20.268 60.0114 20.137 59.5289 19.8749C59.0524 19.6069 58.689 19.2524 58.4388 18.8117C58.1946 18.3649 58.0725 17.8735 58.0725 17.3374C58.0725 16.8906 58.141 16.4826 58.278 16.1133C58.415 15.744 58.6354 15.4194 58.9392 15.1394C59.2489 14.8535 59.6629 14.6152 60.1811 14.4246C60.5385 14.2936 60.9644 14.1774 61.4588 14.0761C61.9532 13.9749 62.5132 13.8796 63.1386 13.7902C63.764 13.6949 64.452 13.5907 65.2026 13.4775L64.327 13.96C64.327 13.3882 64.1899 12.9682 63.9159 12.7002C63.6419 12.4321 63.1833 12.2981 62.54 12.2981C62.1826 12.2981 61.8103 12.3845 61.4231 12.5572C61.0359 12.7299 60.7649 13.0367 60.61 13.4775L58.412 12.7806C58.6562 11.9824 59.1149 11.3331 59.788 10.8328C60.4611 10.3324 61.3784 10.0822 62.54 10.0822C63.3918 10.0822 64.1483 10.2133 64.8094 10.4754C65.4706 10.7375 65.971 11.1902 66.3105 11.8335C66.5011 12.1909 66.6143 12.5483 66.65 12.9057C66.6858 13.2631 66.7036 13.6622 66.7036 14.1029V20H64.5771V18.0164L64.8809 18.4275C64.4103 19.0767 63.9011 19.5473 63.353 19.8392C62.811 20.1251 62.123 20.268 61.2891 20.268ZM61.8073 18.356C62.254 18.356 62.6293 18.2785 62.9331 18.1237C63.2428 17.9628 63.4871 17.7812 63.6658 17.5786C63.8504 17.3761 63.9755 17.2063 64.041 17.0693C64.1661 16.8073 64.2376 16.5035 64.2555 16.158C64.2793 15.8065 64.2912 15.5147 64.2912 15.2824L65.006 15.4611C64.2853 15.5802 63.7015 15.6814 63.2548 15.7648C62.808 15.8423 62.4476 15.9138 62.1736 15.9793C61.8996 16.0448 61.6584 16.1163 61.4499 16.1937C61.2116 16.289 61.018 16.3933 60.8691 16.5064C60.7262 16.6137 60.619 16.7328 60.5475 16.8638C60.482 16.9949 60.4492 17.1408 60.4492 17.3017C60.4492 17.522 60.5028 17.7127 60.61 17.8735C60.7232 18.0284 60.881 18.1475 61.0836 18.2309C61.2861 18.3143 61.5273 18.356 61.8073 18.356ZM69.0269 20V10.3503H71.1712V12.7091L70.9389 12.4053C71.064 12.0717 71.2308 11.768 71.4393 11.4939C71.6478 11.2199 71.9039 10.9936 72.2077 10.8149C72.44 10.6719 72.6932 10.5617 72.9672 10.4843C73.2412 10.4009 73.5241 10.3503 73.816 10.3324C74.1079 10.3086 74.3997 10.3145 74.6916 10.3503V12.6197C74.4236 12.5364 74.1108 12.5095 73.7534 12.5393C73.402 12.5632 73.0833 12.6436 72.7974 12.7806C72.5115 12.9116 72.2702 13.0873 72.0737 13.3077C71.8771 13.5222 71.7282 13.7783 71.6269 14.0761C71.5257 14.368 71.475 14.6986 71.475 15.0679V20H69.0269ZM82.181 20C81.5139 20.1251 80.8587 20.1787 80.2154 20.1608C79.578 20.1489 79.0062 20.0387 78.4998 19.8302C77.9995 19.6158 77.6183 19.2733 77.3562 18.8027C77.1179 18.3619 76.9928 17.9152 76.9809 17.4625C76.969 17.0038 76.963 16.4856 76.963 15.9078V7.66979H79.3933V15.7648C79.3933 16.1401 79.3963 16.4796 79.4023 16.7834C79.4142 17.0813 79.4767 17.3195 79.5899 17.4982C79.8043 17.8377 80.1469 18.0224 80.6174 18.0522C81.088 18.082 81.6092 18.0581 82.181 17.9807V20ZM75.319 12.2266V10.3503H82.181V12.2266H75.319ZM84.3314 20V7.1337H89.4779C90.3953 7.1337 91.1369 7.31835 91.7027 7.68767C92.2686 8.05102 92.6826 8.50968 92.9447 9.06364C93.2068 9.61761 93.3378 10.1775 93.3378 10.7434C93.3378 11.4642 93.174 12.0628 92.8464 12.5393C92.5248 13.0159 92.081 13.3345 91.5151 13.4954V13.0486C92.3193 13.2154 92.9209 13.5877 93.32 14.1655C93.725 14.7433 93.9275 15.3896 93.9275 16.1044C93.9275 16.8728 93.7846 17.5489 93.4987 18.1326C93.2187 18.7163 92.7898 19.175 92.212 19.5086C91.6342 19.8362 90.9075 20 90.0319 20H84.3314ZM86.7975 17.7127H89.7817C90.1093 17.7127 90.4012 17.6442 90.6574 17.5072C90.9135 17.3642 91.113 17.1676 91.256 16.9174C91.4049 16.6613 91.4794 16.3605 91.4794 16.015C91.4794 15.7112 91.4168 15.4402 91.2917 15.2019C91.1666 14.9637 90.976 14.776 90.7199 14.639C90.4697 14.4961 90.157 14.4246 89.7817 14.4246H86.7975V17.7127ZM86.7975 12.1551H89.4422C89.7162 12.1551 89.9604 12.1075 90.1749 12.0122C90.3893 11.9169 90.5591 11.7709 90.6842 11.5744C90.8092 11.3718 90.8718 11.1127 90.8718 10.797C90.8718 10.4039 90.7497 10.0733 90.5055 9.80524C90.2612 9.5372 89.9068 9.40317 89.4422 9.40317H86.7975V12.1551ZM95.8882 9.01003V6.86565H98.3185V9.01003H95.8882ZM95.8882 20V10.3503H98.3185V20H95.8882ZM100.104 20V19.6962L104.839 12.4589H100.64V10.3503H108.592V10.6541L103.874 17.8914H108.413V20H100.104Z" fill="#2E343F"/>
</svg>
